<svg width="35" height="35" viewBox="0 0 35 35" fill="none" xmlns="http://www.w3.org/2000/svg">
<path id="&#208;&#152;&#208;&#186;&#208;&#190;&#208;&#189;&#208;&#186;&#208;&#176; &#209;&#129;&#208;&#190;&#208;&#183;&#208;&#180;&#208;&#176;&#208;&#189;&#208;&#184;&#209;&#143;" d="M17.5 0C7.83562 0 0 7.83453 0 17.5C0 27.1655 7.83453 35 17.5 35C27.1655 35 35 27.1655 35 17.5C35 7.83453 27.1655 0 17.5 0ZM17.5 32.8475C9.05625 32.8475 2.1875 25.9438 2.1875 17.5C2.1875 9.05625 9.05625 2.1875 17.5 2.1875C25.9438 2.1875 32.8125 9.05625 32.8125 17.5C32.8125 25.9438 25.9438 32.8475 17.5 32.8475ZM25.1562 16.4062H18.5938V9.84375C18.5938 9.24 18.1038 8.75 17.5 8.75C16.8962 8.75 16.4062 9.24 16.4062 9.84375V16.4062H9.84375C9.24 16.4062 8.75 16.8962 8.75 17.5C8.75 18.1038 9.24 18.5938 9.84375 18.5938H16.4062V25.1562C16.4062 25.76 16.8962 26.25 17.5 26.25C18.1038 26.25 18.5938 25.76 18.5938 25.1562V18.5938H25.1562C25.76 18.5938 26.25 18.1038 26.25 17.5C26.25 16.8962 25.76 16.4062 25.1562 16.4062Z" fill="#ADC2E9"/>
</svg>
