<svg width="14" height="14" viewBox="0 0 14 14" fill="none" xmlns="http://www.w3.org/2000/svg">
<path id="Vector" d="M9.0761 9.94804C9.07642 9.94828 9.07641 9.94876 9.07608 9.94899C8.13659 10.5871 6.98763 10.9629 5.74605 10.9629C2.57288 10.9629 0 8.5085 0 5.48145C0 2.4544 2.57288 0 5.74605 0C8.91922 0 11.4921 2.4544 11.4921 5.48145C11.4921 7.84662 11.2408 10.7233 12.9522 12.3559L13.863 13.2248C14.0489 13.4021 14.0442 13.6865 13.8575 13.8644C13.6697 14.0437 13.3707 14.045 13.187 13.8696L9.0761 9.94804ZM5.74605 10.318C8.54602 10.318 10.8161 8.1525 10.8161 5.48145C10.8161 2.81041 8.54602 0.644877 5.74605 0.644877C2.94607 0.644877 0.676006 2.81041 0.676006 5.48145C0.676006 8.1525 2.94607 10.318 5.74605 10.318Z" fill="#ADC2E9"/>
</svg>
